# Blender 4.2.3 LTS
# www.blender.org
mtllib Lil_Blocky_Guy.mtl
o Cube
v 0.064040 1.315903 -0.064040
v 0.064040 1.315903 0.064040
v 0.112720 1.233397 -0.064040
v 0.112720 1.233397 0.064040
v 0.335619 1.185246 -0.064040
v 0.335619 1.185246 0.064040
v 0.335619 0.529638 -0.064040
v 0.335619 0.529638 0.064040
v 0.335619 1.006735 0.064040
v 0.335619 1.006735 -0.064040
v 0.000000 1.315903 -0.064040
v 0.000000 1.315903 0.064040
v 0.000000 1.185246 -0.064040
v 0.000000 1.185246 0.064040
v 0.000000 1.185246 -0.064040
v 0.000000 1.185246 0.064040
v 0.000000 0.529638 -0.064040
v 0.000000 0.529638 0.064040
v 0.000000 1.006735 -0.064040
v 0.000000 1.006735 0.064040
v 0.468277 1.006735 -0.064040
v 0.468277 1.006735 0.064040
v 0.348846 1.185246 0.064040
v 0.348846 1.185246 -0.064040
v 0.348846 1.006735 -0.064040
v 0.348846 1.006735 0.064040
v 0.468277 0.530334 0.064040
v 0.468277 0.530334 -0.064040
v 0.348846 0.530334 -0.064040
v 0.348846 0.530334 0.064040
v 0.335619 0.481654 0.064040
v 0.335619 0.481654 -0.064040
v 0.094363 0.481654 0.064040
v 0.094363 0.481654 -0.064040
v 0.468277 1.146029 0.064040
v 0.429061 1.185246 0.064040
v 0.429061 1.185246 -0.064040
v 0.468277 1.146029 -0.064040
v 0.230418 1.369869 0.230418
v 0.176452 1.315903 0.176452
v 0.176452 1.776740 0.176452
v 0.230418 1.722774 0.230418
v 0.176452 1.315903 -0.176452
v 0.230418 1.369869 -0.230418
v 0.176452 1.776740 -0.176452
v 0.230418 1.722774 -0.230418
v 0.000000 1.369869 -0.230418
v 0.000000 1.315903 -0.176452
v 0.000000 1.776740 -0.176452
v 0.000000 1.722774 -0.230418
v 0.000000 1.315903 0.176452
v 0.000000 1.369869 0.230418
v 0.000000 1.722774 0.230418
v 0.000000 1.776740 0.176452
v 0.278747 0.000000 0.064040
v 0.335619 0.056872 0.064040
v 0.335619 0.056872 -0.064040
v 0.278747 0.000000 -0.064040
v 0.094363 0.056872 0.064040
v 0.151235 0.000000 0.064040
v 0.151235 0.000000 -0.064040
v 0.094363 0.056872 -0.064040
v 0.348846 0.923352 0.064040
v 0.468277 0.923352 0.064040
v 0.468277 0.923352 -0.064040
v 0.348846 0.923352 -0.064040
v -0.064040 1.315903 -0.064040
v -0.064040 1.315903 0.064040
v -0.112720 1.233397 -0.064040
v -0.112720 1.233397 0.064040
v -0.335619 1.185246 -0.064040
v -0.335619 1.185246 0.064040
v -0.335619 0.529638 -0.064040
v -0.335619 0.529638 0.064040
v -0.335619 1.006735 0.064040
v -0.335619 1.006735 -0.064040
v -0.468277 1.006735 -0.064040
v -0.468277 1.006735 0.064040
v -0.348846 1.185246 0.064040
v -0.348846 1.185246 -0.064040
v -0.348846 1.006735 -0.064040
v -0.348846 1.006735 0.064040
v -0.468277 0.530334 0.064040
v -0.468277 0.530334 -0.064040
v -0.348846 0.530334 -0.064040
v -0.348846 0.530334 0.064040
v -0.335619 0.481654 0.064040
v -0.335619 0.481654 -0.064040
v -0.094363 0.481654 0.064040
v -0.094363 0.481654 -0.064040
v -0.468277 1.146029 0.064040
v -0.429061 1.185246 0.064040
v -0.429061 1.185246 -0.064040
v -0.468277 1.146029 -0.064040
v -0.230418 1.369869 0.230418
v -0.176452 1.315903 0.176452
v -0.176452 1.776740 0.176452
v -0.230418 1.722774 0.230418
v -0.176452 1.315903 -0.176452
v -0.230418 1.369869 -0.230418
v -0.176452 1.776740 -0.176452
v -0.230418 1.722774 -0.230418
v -0.278747 0.000000 0.064040
v -0.335619 0.056872 0.064040
v -0.335619 0.056872 -0.064040
v -0.278747 0.000000 -0.064040
v -0.094363 0.056872 0.064040
v -0.151235 0.000000 0.064040
v -0.151235 0.000000 -0.064040
v -0.094363 0.056872 -0.064040
v -0.348846 0.923352 0.064040
v -0.468277 0.923352 0.064040
v -0.468277 0.923352 -0.064040
v -0.348846 0.923352 -0.064040
vn -0.0000 -1.0000 -0.0000
vn -0.0000 -0.0000 1.0000
vn 0.8613 0.5082 -0.0000
vn 1.0000 -0.0000 -0.0000
vn -0.0000 -0.0000 -1.0000
vn 0.2112 0.9775 -0.0000
vn -0.0000 1.0000 -0.0000
vn -1.0000 -0.0000 -0.0000
vn -0.4533 -0.8914 -0.0000
vn 0.7071 0.7071 -0.0000
vn -0.0000 0.7071 -0.7071
vn 0.7071 -0.7071 -0.0000
vn -0.0000 -0.7071 0.7071
vn -0.0000 -0.7071 -0.7071
vn -0.0000 0.7071 0.7071
vn -0.7071 -0.7071 -0.0000
vn -0.8613 0.5082 -0.0000
vn -0.2112 0.9775 -0.0000
vn 0.4533 -0.8914 -0.0000
vn -0.7071 0.7071 -0.0000
vt 0.352319 0.631467
vt 0.291383 0.704789
vt 0.257878 0.635541
vt 0.279266 0.593924
vt 0.150217 0.743517
vt 0.138995 0.843293
vt 0.047912 0.919377
vt 0.047912 0.678020
vt 0.062643 0.329282
vt 0.060731 0.276370
vt 0.102528 0.267979
vt 0.108313 0.335800
vt 0.302144 0.737677
vt 0.283717 0.841342
vt 0.044163 0.347992
vt 0.082337 0.385697
vt 0.222780 0.317211
vt 0.217245 0.274615
vt 0.401351 0.241777
vt 0.410675 0.297964
vt 0.175433 0.311136
vt 0.082381 0.385720
vt 0.177212 0.291120
vt 0.522107 0.433773
vt 0.522108 0.106935
vt 0.559257 0.216569
vt 0.562049 0.389174
vt 0.161561 0.447619
vt 0.410675 0.471887
vt 0.851704 0.754118
vt 0.895190 0.854485
vt 0.864371 0.841555
vt 0.853757 0.828495
vt 0.843742 0.767591
vt 0.075111 0.219256
vt 0.142017 0.164206
vt 0.352004 0.094058
vt 0.040946 0.259645
vt 0.075068 0.219280
vt 0.393342 0.668238
vt 0.402954 0.929948
vt 0.273487 0.869890
vt 0.345375 0.976548
vt 0.091489 0.957183
vt 0.150783 0.874677
vt 0.157962 0.714276
vt 0.093007 0.638557
vt 0.171578 0.604359
vt 0.191060 0.649120
vt 0.796222 0.948174
vt 0.802121 0.767900
vt 0.826441 0.773493
vt 0.835803 0.853300
vt 0.817054 0.882626
vt 0.838015 0.715843
vt 0.817592 0.717868
vt 0.890514 0.482048
vt 0.892572 0.444113
vt 0.794635 0.952737
vt 0.794635 0.765340
vt 0.854813 0.749640
vt 0.903432 0.858367
vt 0.884092 0.493755
vt 0.883592 0.481676
vt 0.850717 0.717548
vt 0.857373 0.708547
vt 0.704674 0.101169
vt 0.654866 0.215992
vt 0.670023 0.431638
vt 0.636915 0.391153
vt 0.602185 0.313334
vt 0.602530 0.313435
vt 0.602740 0.313827
vt 0.602653 0.314495
vt 0.603460 0.313549
vt 0.603047 0.313440
vt 0.602799 0.313073
vt 0.602690 0.312295
s 0
usemtl Material.001
f 48/1/1 43/2/1 1/3/1 11/4/1
f 39/5/2 42/6/2 53/7/2 52/8/2
f 1/9/3 2/10/3 4/11/3 3/12/3
f 44/13/4 46/14/4 42/6/4 39/5/4
f 11/15/5 1/9/5 3/12/5 13/16/5
f 10/17/4 9/18/4 8/19/4 7/20/4
f 13/16/5 3/12/5 5/21/5 15/22/5
f 3/12/6 4/11/6 6/23/6 5/21/6
f 8/24/2 18/25/2 33/26/2 31/27/2
f 19/28/5 10/17/5 7/20/5 17/29/5
f 15/22/5 5/21/5 10/17/5 19/28/5
f 25/30/5 24/31/5 37/32/5 38/33/5 21/34/5
f 6/23/2 16/35/2 20/36/2 9/18/2
f 9/18/2 20/36/2 18/37/2 8/19/2
f 2/10/2 12/38/2 14/39/2 4/11/2
f 4/11/2 14/39/2 16/35/2 6/23/2
f 47/40/5 50/41/5 46/14/5 44/13/5
f 45/42/7 49/43/7 54/44/7 41/45/7
f 40/46/1 51/47/1 12/48/1 2/49/1
f 23/50/2 26/51/2 22/52/2 35/53/2 36/54/2
f 64/55/2 63/56/2 30/57/2 27/58/2
f 24/31/7 23/50/7 36/54/7 37/32/7
f 6/59/2 9/60/2 26/51/2 23/50/2
f 10/61/5 5/62/5 24/31/5 25/30/5
f 9/60/1 10/61/1 25/30/1 26/51/1
f 5/62/7 6/59/7 23/50/7 24/31/7
f 30/57/1 29/63/1 28/64/1 27/58/1
f 65/65/4 64/55/4 27/58/4 28/64/4
f 63/56/8 66/66/8 29/63/8 30/57/8
f 66/66/5 65/65/5 28/64/5 29/63/5
f 18/25/9 17/67/9 34/68/9 33/26/9
f 17/67/5 7/69/5 32/70/5 34/68/5
f 7/69/4 8/24/4 31/27/4 32/70/4
f 31/27/2 33/26/2 59/71/2 60/72/2 55/73/2 56/74/2
f 34/68/5 32/70/5 57/75/5 58/76/5 61/77/5 62/78/5
f 33/26/8 34/68/8 62/78/8 59/71/8
f 61/77/1 58/76/1 55/73/1 60/72/1
f 35/53/10 38/33/10 37/32/10 36/54/10
f 38/33/4 35/53/4 22/52/4 21/34/4
f 49/43/11 45/42/11 46/14/11 50/41/11
f 40/46/12 43/2/12 44/13/12 39/5/12
f 45/42/10 41/45/10 42/6/10 46/14/10
f 51/47/13 40/46/13 39/5/13 52/8/13
f 43/2/14 48/1/14 47/40/14 44/13/14
f 41/45/15 54/44/15 53/7/15 42/6/15
f 43/2/1 40/46/1 2/49/1 1/3/1
f 55/73/12 58/76/12 57/75/12 56/74/12
f 61/77/16 60/72/16 59/71/16 62/78/16
f 32/70/4 31/27/4 56/74/4 57/75/4
f 25/30/5 21/34/5 65/65/5 66/66/5
f 26/51/8 25/30/8 66/66/8 63/56/8
f 21/34/4 22/52/4 64/55/4 65/65/4
f 22/52/2 26/51/2 63/56/2 64/55/2
f 48/1/1 11/4/1 67/3/1 99/2/1
f 95/5/2 52/8/2 53/7/2 98/6/2
f 67/9/17 69/12/17 70/11/17 68/10/17
f 100/13/8 95/5/8 98/6/8 102/14/8
f 11/15/5 13/16/5 69/12/5 67/9/5
f 76/17/8 73/20/8 74/19/8 75/18/8
f 13/16/5 15/22/5 71/21/5 69/12/5
f 69/12/18 71/21/18 72/23/18 70/11/18
f 74/24/2 87/27/2 89/26/2 18/25/2
f 19/28/5 17/29/5 73/20/5 76/17/5
f 15/22/5 19/28/5 76/17/5 71/21/5
f 81/30/5 77/34/5 94/33/5 93/32/5 80/31/5
f 72/23/2 75/18/2 20/36/2 16/35/2
f 75/18/2 74/19/2 18/37/2 20/36/2
f 68/10/2 70/11/2 14/39/2 12/38/2
f 70/11/2 72/23/2 16/35/2 14/39/2
f 47/40/5 100/13/5 102/14/5 50/41/5
f 101/42/7 97/45/7 54/44/7 49/43/7
f 96/46/1 68/49/1 12/48/1 51/47/1
f 79/50/2 92/54/2 91/53/2 78/52/2 82/51/2
f 112/55/2 83/58/2 86/57/2 111/56/2
f 80/31/7 93/32/7 92/54/7 79/50/7
f 72/59/2 79/50/2 82/51/2 75/60/2
f 76/61/5 81/30/5 80/31/5 71/62/5
f 75/60/1 82/51/1 81/30/1 76/61/1
f 71/62/7 80/31/7 79/50/7 72/59/7
f 86/57/1 83/58/1 84/64/1 85/63/1
f 113/65/8 84/64/8 83/58/8 112/55/8
f 111/56/4 86/57/4 85/63/4 114/66/4
f 114/66/5 85/63/5 84/64/5 113/65/5
f 18/25/19 89/26/19 90/68/19 17/67/19
f 17/67/5 90/68/5 88/70/5 73/69/5
f 73/69/8 88/70/8 87/27/8 74/24/8
f 87/27/2 104/74/2 103/73/2 108/72/2 107/71/2 89/26/2
f 90/68/5 110/78/5 109/77/5 106/76/5 105/75/5 88/70/5
f 89/26/4 107/71/4 110/78/4 90/68/4
f 109/77/1 108/72/1 103/73/1 106/76/1
f 91/53/20 92/54/20 93/32/20 94/33/20
f 94/33/8 77/34/8 78/52/8 91/53/8
f 49/43/11 50/41/11 102/14/11 101/42/11
f 96/46/16 95/5/16 100/13/16 99/2/16
f 101/42/20 102/14/20 98/6/20 97/45/20
f 51/47/13 52/8/13 95/5/13 96/46/13
f 99/2/14 100/13/14 47/40/14 48/1/14
f 97/45/15 98/6/15 53/7/15 54/44/15
f 99/2/1 67/3/1 68/49/1 96/46/1
f 103/73/16 104/74/16 105/75/16 106/76/16
f 109/77/12 110/78/12 107/71/12 108/72/12
f 88/70/8 105/75/8 104/74/8 87/27/8
f 81/30/5 114/66/5 113/65/5 77/34/5
f 82/51/4 111/56/4 114/66/4 81/30/4
f 77/34/8 113/65/8 112/55/8 78/52/8
f 78/52/2 112/55/2 111/56/2 82/51/2
